<svg xmlns="http://www.w3.org/2000/svg" width="48" height="48" viewBox="0 0 48 48" fill="none"><path d="M31 25.8V35.5C31 37.7 29.2 39.5 27 39.5H22C19.8 39.5 18 37.7 18 35.5V25.8C19.9 26.9 22.2 27.5 24.5 27.5C26.8 27.5 29.1 26.9 31 25.8Z" fill="#F6EBE7"></path><path d="M37 14C37 18.1 35 21.7 32 24C31.8 24.1 31.7 24.2 31.5 24.4C31.3 24.5 31.2 24.6 31 24.7C29.1 25.9 26.9 26.5 24.5 26.5C22.1 26.5 19.9 25.8 18 24.7C17.8 24.6 17.7 24.5 17.5 24.4C17.3 24.3 17.2 24.2 17 24C14 21.7 12 18.1 12 14C12 7.1 17.6 1.5 24.5 1.5C31.4 1.5 37 7.1 37 14Z" fill="#F6EBE7"></path><path d="M24.5 8.5C21.5 8.5 19 11 19 14C19 17 21.5 19.5 24.5 19.5C27.5 19.5 30 17 30 14C30 11 27.5 8.5 24.5 8.5ZM24.5 18.5C22 18.5 20 16.5 20 14C20 11.5 22 9.5 24.5 9.5C27 9.5 29 11.5 29 14C29 16.5 27 18.5 24.5 18.5Z" fill="black"></path><path d="M24.5 18.5C26.9853 18.5 29 16.4853 29 14C29 11.5147 26.9853 9.5 24.5 9.5C22.0147 9.5 20 11.5147 20 14C20 16.4853 22.0147 18.5 24.5 18.5Z" fill="white"></path><path d="M27.8002 40L27.5002 40.7L26.5002 43.1C26.3002 43.7 25.7002 44 25.1002 44H23.9002C23.3002 44 22.7002 43.6 22.5002 43.1L21.5002 40.7L21.2002 40H27.8002Z" fill="#F6EBE7"></path><path d="M24.5 0.5C17.1 0.5 11 6.6 11 14C11 18.7 13.4 22.8 17 25.2V35.5C17 37.9 18.7 39.8 20.9 40.4L22.1 43.3C22.4 44.1 23.1 44.5 23.9 44.5H24V47.5H25V44.5H25.1C25.9 44.5 26.6 44 26.9 43.3L28.1 40.4C30.3 39.9 32 37.9 32 35.5V25.2C35.6 22.8 38 18.7 38 14C38 6.6 31.9 0.5 24.5 0.5ZM26 42.9C25.8 43.3 25.5 43.5 25.1 43.5H23.9C23.5 43.5 23.1 43.3 23 42.9L22 40.5H27L26 42.9ZM31 35.5C31 37.7 29.2 39.5 27 39.5H22C19.8 39.5 18 37.7 18 35.5V25.8C19.9 26.9 22.2 27.5 24.5 27.5C26.8 27.5 29.1 26.9 31 25.8V35.5ZM32 24C31.8 24.1 31.7 24.2 31.5 24.4C31.3 24.5 31.2 24.6 31 24.7C29.1 25.9 26.9 26.5 24.5 26.5C22.1 26.5 19.9 25.8 18 24.7C17.8 24.6 17.7 24.5 17.5 24.4C17.3 24.3 17.2 24.2 17 24C14 21.7 12 18.1 12 14C12 7.1 17.6 1.5 24.5 1.5C31.4 1.5 37 7.1 37 14C37 18.1 35 21.7 32 24Z" fill="black"></path></svg>
