<svg xmlns="http://www.w3.org/2000/svg" width="48" height="48" viewBox="0 0 48 48" fill="none"><path d="M29.75 25.4999H29.25V25.9999V43.4999C29.25 45.6999 31.05 47.4999 33.25 47.4999C35.45 47.4999 37.25 45.6999 37.25 43.4999V25.9999V25.4999H36.75H29.75Z" fill="#F6EBE7"></path><path d="M28.7499 14.4999H28.1499L28.2499 15.0999L28.6499 18.5999L29.1499 25.0999V25.5999H29.6499H36.8499H37.3499V25.0999L37.8499 18.5999L38.2499 15.0999L38.3499 14.4999H37.7499H28.7499V14.4999Z" fill="white"></path><path d="M28.3501 14.5L23.8501 6.09998L24.1501 5.79998C28.9501 -0.300024 38.1501 -0.100024 42.7501 6.09998L38.2501 14.6H28.3501V14.5Z" fill="#F6EBE7"></path><path d="M23.55 6.49995L27.75 14.4L28.25 18.6L28.75 26V43.5C28.75 46 30.75 48 33.25 48C35.75 48 37.75 46 37.75 43.5V26L38.35 18.6L38.85 14.4L43.25 5.99995L43.05 5.69995C40.75 2.59995 37.35 0.799951 33.45 0.699951C29.55 0.699951 26.05 2.29995 23.65 5.39995L23.25 5.99995L23.35 6.19995L23.55 6.49995ZM24.45 5.99995C26.65 3.19995 29.95 1.69995 33.45 1.69995C36.85 1.79995 39.95 3.29995 42.05 5.99995L37.85 14H36.05L38.25 9.39995L37.35 8.99995L34.95 14H33.75V8.99995H32.75V14H31.45L29.05 8.99995L28.15 9.39995L30.35 14H28.55L24.45 5.99995ZM36.75 43.5C36.75 45.4 35.15 47 33.25 47C31.35 47 29.75 45.4 29.75 43.5V26H36.75V43.5ZM37.35 18.5L36.85 25H29.65L29.15 18.5L28.75 15H32.75H33.75H37.75L37.35 18.5Z" fill="black"></path><path d="M5.75 31.4999H16.75C17.05 31.4999 17.25 31.6999 17.25 31.9999V45.9999C17.25 46.2999 17.05 46.4999 16.75 46.4999H5.75C5.45 46.4999 5.25 46.2999 5.25 45.9999V31.9999C5.25 31.6999 5.45 31.4999 5.75 31.4999Z" fill="#F6EBE7"></path><path d="M6.75 14.4999H15.75C16.05 14.4999 16.25 14.6999 16.25 14.9999V30.9999C16.25 31.2999 16.05 31.4999 15.75 31.4999H6.75C6.45 31.4999 6.25 31.2999 6.25 30.9999V14.9999C6.25 14.6999 6.45 14.4999 6.75 14.4999Z" fill="#F6EBE7"></path><path d="M14.25 14.4999H8.25V8.89994C8.25 8.19994 8.35 7.39994 9.05 6.69994C9.75 5.99994 10.95 5.29994 13.35 4.99994C13.45 4.99994 13.45 4.99994 13.45 4.99994C13.45 4.99994 13.55 5.09994 13.65 5.29994C13.85 5.59994 13.95 6.19994 14.05 6.99994C14.25 8.59994 14.25 10.9999 14.25 14.4999Z" fill="white"></path><path d="M16.75 30.9999V14.9999C16.75 14.3999 16.35 13.9999 15.75 13.9999H14.75C14.75 10.6999 14.75 8.49994 14.55 6.99994C14.45 6.09994 14.35 5.49994 14.15 5.09994C14.05 4.89994 13.95 4.69994 13.85 4.59994C13.75 4.49994 13.55 4.49994 13.35 4.49994C11.15 4.79994 9.65 5.39994 8.75 6.39994C8.05 7.09994 7.75 7.89994 7.75 8.89994V13.9999H6.75C6.15 13.9999 5.75 14.3999 5.75 14.9999V30.9999C5.15 30.9999 4.75 31.3999 4.75 31.9999V45.9999C4.75 46.5999 5.15 46.9999 5.75 46.9999H16.75C17.35 46.9999 17.75 46.5999 17.75 45.9999V31.9999C17.75 31.3999 17.35 30.9999 16.75 30.9999ZM8.75 8.89994C8.75 8.09994 8.95 7.49994 9.45 6.99994C10.15 6.19994 11.45 5.69994 13.25 5.39994C13.35 5.59994 13.45 5.99994 13.55 6.89994C13.75 8.49994 13.75 10.6999 13.75 13.9999H8.75V8.89994ZM6.75 14.9999H7.75H14.75H15.75V30.9999H6.75V14.9999ZM16.75 45.9999H5.75V31.9999V31.4999V31.9999H6.75H15.75H16.75V45.9999Z" fill="black"></path></svg>
